<svg xmlns="http://www.w3.org/2000/svg" xmlns:xlink="http://www.w3.org/1999/xlink" viewBox="0 0 396.62 500"><defs><style>.cls-1,.cls-2{fill:#d6d8e5;}.cls-1{opacity:0.4;}.cls-3{fill:#b1b6c4;}.cls-4{fill:#c4c7d6;}.cls-5{fill:#38226d;}.cls-6{fill:#9c73ff;}.cls-7{fill:#8c50ff;}.cls-8{fill:#ffcea9;}.cls-9{fill:#ededed;}.cls-10{fill:#e5e5e5;}.cls-11{fill:#f4f4f4;}.cls-12{fill:#bfbfbf;}.cls-13{fill:#3a2c6d;}.cls-14{fill:#dceeff;}.cls-15{fill:#dbdbdb;}.cls-16{fill:#1e3779;}.cls-17{fill:#031f60;}.cls-18{fill:#b1b4c4;}.cls-19{fill:#9ea1af;}.cls-20{fill:#e4e7f2;}.cls-21{fill:#201d38;}.cls-22{opacity:0.3;fill:url(#Безымянный_градиент_15);}.cls-23{fill:#a298e2;}.cls-24{fill:#f4ce2c;}.cls-25{fill:#4d3bff;}.cls-26{fill:#ff8657;}.cls-27{fill:#c33afc;}.cls-28{fill:#a6ce28;}.cls-29{fill:#bcd64d;}.cls-30{fill:#28221c;}.cls-31{fill:#fff;opacity:0.07;}.cls-32{fill:#8da01f;}.cls-33{fill:#99b524;}.cls-34{fill:#e4e6ef;}</style><linearGradient id="Безымянный_градиент_15" x1="101.94" y1="197.18" x2="389.84" y2="197.18" gradientUnits="userSpaceOnUse"><stop offset="0.21" stop-color="#fff" stop-opacity="0"/><stop offset="1" stop-color="#fff" stop-opacity="0.2"/></linearGradient></defs><title>Coding_SVG</title><g id="Слой_2" data-name="Слой 2"><g id="Слой_1-2" data-name="Слой 1"><polygon class="cls-1" points="21.36 477.8 0 465.58 31.96 447.29 53.31 459.5 21.36 477.8"/><polygon class="cls-2" points="21.8 453.17 4.11 442.96 21.8 432.75 39.48 442.96 21.8 453.17"/><polygon class="cls-3" points="21.8 473.59 4.11 463.38 4.11 442.96 21.8 453.17 21.8 473.59"/><polygon class="cls-4" points="39.49 463.38 21.8 473.59 21.8 453.17 39.49 442.96 39.49 463.38"/><g id="Men_5"><path class="cls-5" d="M45.57,457a6,6,0,0,0,4.55-.55c1.1,0,7.06-2.51,7.87-.37.71,1.87-1.87,3.61-3.25,3.94-3,.73-5.24,2.23-6.45,2.49a3,3,0,0,1-2.78-.4C44.65,461.21,44.73,458.07,45.57,457Z"/><path class="cls-6" d="M48.29,461.94c1.21-.26,3.44-1.76,6.45-2.49,1.15-.28,3.14-1.54,3.34-3.05.27,1.73-2.06,3.26-3.34,3.57-3,.73-5.24,2.23-6.45,2.49a3,3,0,0,1-2.78-.4,1.59,1.59,0,0,1-.39-.72A3.59,3.59,0,0,0,48.29,461.94Z"/><path class="cls-5" d="M34.83,451.23a6,6,0,0,0,4.55-.55c1.1,0,7-2.51,7.86-.37.71,1.87-1.87,3.61-3.24,3.94-3,.73-5.24,2.23-6.45,2.49a3,3,0,0,1-2.78-.4C33.91,455.49,34,452.35,34.83,451.23Z"/><path class="cls-6" d="M37.55,456.22c1.21-.26,3.44-1.76,6.45-2.49,1.15-.28,3.14-1.54,3.34-3.05.27,1.73-2.06,3.26-3.34,3.57-3,.73-5.24,2.23-6.45,2.49a3,3,0,0,1-2.78-.4,1.61,1.61,0,0,1-.39-.71A3.61,3.61,0,0,0,37.55,456.22Z"/><path class="cls-7" d="M18.1,443.82c4.65,2,9,2.36,12.61.44l3.7-2.14c.22,4.78.43,9.37.43,9.37s2.84,2.15,5,.23c0,0,.46-6.7.93-13.3l3.88-2.24a4.51,4.51,0,0,0-.15,1.08c0,1.25.9,19.88.9,19.88s2.86,1.7,5.07-.21c0,0,1.49-21.59,1.83-25,.38-3.88-3.92-5.79-6.65-4.8l-4.16,1.55.2-2.4c.39-3.88-3.92-5.79-6.64-4.8-2.48.91-19.24,7.19-19.24,7.19a42.16,42.16,0,0,0,.59,4.81l-6.62-.56C9.43,439.11,13.46,441.78,18.1,443.82Zm11.56-10.73,4.43-2.55a5.59,5.59,0,0,0-.14.95Z"/><path class="cls-8" d="M6.2,414s.54,8.23,1.62,9.42,4.74,2,4.74,2L15.37,430S12.8,415.32,12.24,415,6.2,414,6.2,414Z"/><path id="_Контур_" data-name="&lt;Контур&gt;" class="cls-9" d="M11.61,404.85A3.09,3.09,0,0,0,7.69,406c-1,1.71-2.11,7.6-2.21,8.6a4.15,4.15,0,0,0,3.63,1.67Z"/><path id="_Контур_2" data-name="&lt;Контур&gt;" class="cls-8" d="M12.6,405c1.42.07,2.48.43,2.66,0a18.1,18.1,0,0,0,.32-2.22c-.16-.42-.3-.86-.3-.86-1.79-1.1-2.35-3-2.59-5.28-.4-3.85,1.68-7.21,5.52-7.61,3.62-.38,6.28,2.16,7,5.65.38,1.72,1.14,5,.11,7.81-.57,1.58-1.31,2.84-2,3.08a17.07,17.07,0,0,1-2.14-.18h0s-.19,1.07-.32,1.75-.09,1.05,1.28,1.89-2.06,2.57-4.3,2.4-4.76-1.52-5.45-3C11.56,406.81,11.62,404.91,12.6,405Z"/><g id="_Группа_" data-name="&lt;Группа&gt;"><g id="_Группа_2" data-name="&lt;Группа&gt;"><g id="_Группа_3" data-name="&lt;Группа&gt;"><path id="_Контур_3" data-name="&lt;Контур&gt;" class="cls-10" d="M48.66,430.15h0a1.16,1.16,0,0,1-.58,1l-10.85,6.26a1.15,1.15,0,0,1-1.16,0l-15.2-8.78a1.14,1.14,0,0,1-.58-1v-.08Z"/><path id="_Контур_4" data-name="&lt;Контур&gt;" class="cls-10" d="M48.08,431.15l-10.85,6.26a1.1,1.1,0,0,1-.58.16v-7.42h12A1.16,1.16,0,0,1,48.08,431.15Z"/><g id="_Группа_4" data-name="&lt;Группа&gt;"><path id="_Контур_5" data-name="&lt;Контур&gt;" class="cls-11" d="M37.06,436.84a.79.79,0,0,1-.81,0l-15.81-9.12c-.2-.12-.2-.31,0-.42l11.64-6.73,16.58,9.58Z"/></g><g id="_Группа_5" data-name="&lt;Группа&gt;"><polygon id="_Контур_6" data-name="&lt;Контур&gt;" class="cls-12" points="26.93 430.15 27.01 430.19 32.08 433.12 34.86 431.51 34.94 431.47 29.79 428.5 26.93 430.15"/><polygon id="_Контур_7" data-name="&lt;Контур&gt;" class="cls-10" points="27.01 430.19 32.08 433.12 34.86 431.51 29.79 428.59 27.01 430.19"/></g><path class="cls-13" d="M44.36,430.62l.73.42a.24.24,0,0,0,.23,0l.7-.4c.07,0,.08-.1,0-.13l-.73-.43a.27.27,0,0,0-.23,0l-.7.41C44.31,430.53,44.3,430.59,44.36,430.62Z"/><path class="cls-13" d="M43.33,430l.73.42a.24.24,0,0,0,.23,0l.7-.4c.07,0,.07-.1,0-.13l-.73-.42a.24.24,0,0,0-.23,0l-.7.4C43.28,429.93,43.27,430,43.33,430Z"/><path class="cls-13" d="M42.29,429.43l.73.42a.29.29,0,0,0,.24,0l.69-.4c.07,0,.08-.1,0-.14l-.73-.42a.24.24,0,0,0-.23,0l-.7.4C42.24,429.33,42.23,429.39,42.29,429.43Z"/><path class="cls-13" d="M41.26,428.83l.73.42a.27.27,0,0,0,.23,0l.7-.4c.07,0,.08-.1,0-.14l-.73-.42a.29.29,0,0,0-.24,0l-.69.4C41.21,428.73,41.2,428.79,41.26,428.83Z"/><path class="cls-13" d="M40.22,428.23l.74.42a.24.24,0,0,0,.23,0l.69-.4c.07,0,.08-.1,0-.13l-.73-.43a.27.27,0,0,0-.23,0l-.7.41C40.17,428.14,40.16,428.2,40.22,428.23Z"/><path class="cls-13" d="M39.19,427.63l.73.43a.27.27,0,0,0,.23,0l.7-.41c.07,0,.08-.1,0-.13l-.73-.42a.26.26,0,0,0-.24,0l-.69.4C39.14,427.54,39.13,427.6,39.19,427.63Z"/><path class="cls-13" d="M38.16,427l.73.42a.27.27,0,0,0,.23,0l.7-.4c.07,0,.07-.1,0-.14l-.73-.42a.27.27,0,0,0-.23,0l-.7.4C38.1,426.94,38.1,427,38.16,427Z"/><path class="cls-13" d="M37.12,426.44l.73.42a.24.24,0,0,0,.23,0l.7-.4c.07,0,.08-.1,0-.13l-.73-.43a.27.27,0,0,0-.23,0l-.7.41C37.07,426.35,37.06,426.41,37.12,426.44Z"/><path class="cls-13" d="M36.09,425.84l.73.42a.24.24,0,0,0,.23,0l.7-.4c.07,0,.07-.1,0-.13L37,425.3a.24.24,0,0,0-.23,0l-.7.4C36,425.75,36,425.81,36.09,425.84Z"/><path class="cls-13" d="M35.05,425.25l.73.42a.29.29,0,0,0,.24,0l.69-.4c.07,0,.08-.1,0-.14L36,424.7a.24.24,0,0,0-.23,0l-.7.4C35,425.15,35,425.21,35.05,425.25Z"/><path class="cls-13" d="M34,424.65l.73.42a.27.27,0,0,0,.23,0l.7-.4c.07,0,.08-.1,0-.14L35,424.1a.29.29,0,0,0-.24,0l-.69.4C34,424.55,34,424.61,34,424.65Z"/><path class="cls-13" d="M33,424.05l.74.42a.24.24,0,0,0,.23,0l.7-.4c.06,0,.07-.1,0-.13l-.73-.43a.27.27,0,0,0-.23,0l-.7.41C32.93,424,32.93,424,33,424.05Z"/><path class="cls-13" d="M32,423.45l.73.43a.27.27,0,0,0,.23,0l.7-.41c.07,0,.08-.1,0-.13l-.73-.42a.26.26,0,0,0-.24,0l-.69.4C31.9,423.36,31.89,423.42,32,423.45Z"/><path class="cls-13" d="M30.42,422.57l1.23.71a.27.27,0,0,0,.23,0l.7-.4c.07,0,.07-.1,0-.14L31.36,422a.27.27,0,0,0-.23,0l-.7.41A.07.07,0,0,0,30.42,422.57Z"/><path class="cls-13" d="M41.82,430.31l.74.42a.24.24,0,0,0,.23,0l.7-.4c.06,0,.07-.1,0-.13l-.73-.42a.24.24,0,0,0-.23,0l-.7.4C41.77,430.22,41.77,430.28,41.82,430.31Z"/><path class="cls-13" d="M40.79,429.71l.73.43a.27.27,0,0,0,.23,0l.7-.41c.07,0,.08-.1,0-.13l-.73-.42a.26.26,0,0,0-.24,0l-.69.4C40.74,429.62,40.73,429.68,40.79,429.71Z"/><path class="cls-13" d="M39.75,429.12l.73.42a.29.29,0,0,0,.24,0l.69-.4c.07,0,.08-.1,0-.14l-.73-.42a.27.27,0,0,0-.23,0l-.7.4C39.7,429,39.69,429.08,39.75,429.12Z"/><path class="cls-13" d="M38.72,428.52l.73.42a.27.27,0,0,0,.23,0l.7-.4c.07,0,.07-.1,0-.14l-.73-.42a.27.27,0,0,0-.23,0l-.7.4C38.66,428.42,38.66,428.48,38.72,428.52Z"/><path class="cls-13" d="M37.69,427.92l.73.43a.27.27,0,0,0,.23,0l.7-.41c.07,0,.08-.1,0-.13l-.73-.42a.26.26,0,0,0-.24,0l-.69.4C37.64,427.83,37.63,427.89,37.69,427.92Z"/><path class="cls-13" d="M36.65,427.33l.73.42a.29.29,0,0,0,.24,0l.69-.4c.07,0,.08-.1,0-.14l-.73-.42a.27.27,0,0,0-.23,0l-.7.4C36.6,427.23,36.59,427.29,36.65,427.33Z"/><path class="cls-13" d="M35.62,426.73l.73.42a.27.27,0,0,0,.23,0l.7-.4c.07,0,.07-.1,0-.14l-.73-.42a.27.27,0,0,0-.23,0l-.7.4C35.56,426.63,35.56,426.69,35.62,426.73Z"/><path class="cls-13" d="M34.58,426.13l.73.42a.24.24,0,0,0,.23,0l.7-.4c.07,0,.08-.1,0-.13l-.73-.43a.29.29,0,0,0-.24,0l-.69.41C34.53,426,34.52,426.1,34.58,426.13Z"/><path class="cls-13" d="M33.54,425.53l.74.42a.24.24,0,0,0,.23,0l.7-.4c.06,0,.07-.1,0-.13l-.73-.42a.24.24,0,0,0-.23,0l-.7.4C33.49,425.44,33.49,425.5,33.54,425.53Z"/><path class="cls-13" d="M32.51,424.93l.73.43a.27.27,0,0,0,.23,0l.7-.41c.07,0,.08-.1,0-.13l-.73-.42a.26.26,0,0,0-.24,0l-.69.4C32.46,424.84,32.45,424.9,32.51,424.93Z"/><path class="cls-13" d="M31.47,424.34l.73.42a.29.29,0,0,0,.24,0l.69-.4c.07,0,.08-.1,0-.14l-.73-.42a.27.27,0,0,0-.23,0l-.7.4C31.42,424.24,31.41,424.3,31.47,424.34Z"/><path class="cls-13" d="M30.44,423.74l.73.42a.27.27,0,0,0,.23,0l.7-.4c.07,0,.07-.1,0-.14l-.73-.42a.27.27,0,0,0-.23,0l-.7.4C30.38,423.64,30.38,423.7,30.44,423.74Z"/><path class="cls-13" d="M42.86,430.91l1.23.71a.27.27,0,0,0,.23,0l.7-.4c.07,0,.08-.1,0-.14l-1.23-.71a.29.29,0,0,0-.24,0l-.69.41C42.81,430.82,42.8,430.88,42.86,430.91Z"/><path class="cls-13" d="M30.35,422.6l.73.42c.06,0,.06.09,0,.13l-.74.42a.2.2,0,0,1-.21,0l-.06,0a.23.23,0,0,0-.2,0l-.78.45a.28.28,0,0,1-.22,0l-.46-.27c-.06,0-.06-.09,0-.13l.73-.42.15-.08.11-.07.11-.06.62-.36A.22.22,0,0,1,30.35,422.6Z"/><path class="cls-13" d="M40.35,432.93l.73.42a.24.24,0,0,0,.23,0l.7-.4c.07,0,.07-.1,0-.13l-.73-.42a.24.24,0,0,0-.23,0l-.7.4C40.3,432.84,40.29,432.9,40.35,432.93Z"/><path class="cls-13" d="M39.32,432.34l.73.42a.27.27,0,0,0,.23,0l.7-.4c.07,0,.07-.1,0-.14l-.73-.42a.27.27,0,0,0-.23,0l-.7.4C39.26,432.24,39.26,432.3,39.32,432.34Z"/><path class="cls-13" d="M38.28,431.74l.74.42a.24.24,0,0,0,.23,0l.7-.4c.06,0,.07-.1,0-.13l-.73-.42a.24.24,0,0,0-.23,0l-.7.41C38.23,431.65,38.23,431.71,38.28,431.74Z"/><path class="cls-13" d="M29.5,426.67l.73.42a.26.26,0,0,0,.24,0l.69-.4c.07,0,.08-.1,0-.13l-.73-.43a.27.27,0,0,0-.23,0l-.7.41C29.45,426.58,29.44,426.64,29.5,426.67Z"/><path class="cls-13" d="M28.47,426.08l.73.42a.27.27,0,0,0,.23,0l.7-.41c.07,0,.08-.09,0-.13l-.73-.42a.26.26,0,0,0-.24,0l-.69.4C28.42,426,28.41,426,28.47,426.08Z"/><path class="cls-13" d="M27.44,425.48l.73.42a.24.24,0,0,0,.23,0l.7-.4c.07,0,.08-.1,0-.13l-.73-.43a.29.29,0,0,0-.24,0l-.69.41C27.39,425.39,27.38,425.45,27.44,425.48Z"/><path class="cls-13" d="M26.41,424.88l.73.43a.27.27,0,0,0,.23,0l.7-.41c.07,0,.07-.1,0-.13l-.74-.42a.24.24,0,0,0-.23,0l-.7.4C26.36,424.79,26.35,424.85,26.41,424.88Z"/><path class="cls-13" d="M37,431l1,.58a.29.29,0,0,0,.24,0l.69-.4c.07,0,.08-.1,0-.14l-1-.57a.24.24,0,0,0-.23,0l-.7.4C36.94,430.9,36.93,431,37,431Z"/><path class="cls-13" d="M30.53,427.27l1,.57a.24.24,0,0,0,.23,0l.7-.4c.07,0,.08-.1,0-.14l-1-.57a.27.27,0,0,0-.23,0l-.7.4C30.48,427.17,30.47,427.23,30.53,427.27Z"/><path class="cls-13" d="M31.83,428l4.86,2.81a.27.27,0,0,0,.23,0l.7-.4c.07,0,.07-.1,0-.14l-4.85-2.8a.26.26,0,0,0-.24,0l-.69.4C31.78,427.92,31.77,428,31.83,428Z"/><path class="cls-13" d="M40.54,430.73l.73.42a.24.24,0,0,0,.23,0l.7-.4c.07,0,.08-.1,0-.14l-.73-.42a.29.29,0,0,0-.24,0l-.69.4C40.49,430.63,40.48,430.69,40.54,430.73Z"/><path class="cls-13" d="M39.51,430.13l.73.42a.24.24,0,0,0,.23,0l.7-.4c.07,0,.07-.1,0-.13l-.73-.42a.24.24,0,0,0-.23,0l-.7.4C39.46,430,39.45,430.1,39.51,430.13Z"/><path class="cls-13" d="M38.47,429.54l.74.42a.27.27,0,0,0,.23,0l.7-.4c.06,0,.07-.1,0-.14l-.73-.42a.27.27,0,0,0-.23,0l-.7.4C38.42,429.44,38.42,429.5,38.47,429.54Z"/><path class="cls-13" d="M37.44,428.94l.73.42a.24.24,0,0,0,.23,0l.7-.4c.07,0,.08-.1,0-.14l-.73-.42a.27.27,0,0,0-.23,0l-.7.41C37.39,428.85,37.38,428.91,37.44,428.94Z"/><path class="cls-13" d="M36.41,428.34l.73.42a.24.24,0,0,0,.23,0l.7-.41c.07,0,.08-.1,0-.13l-.73-.42a.26.26,0,0,0-.24,0l-.69.4C36.36,428.25,36.35,428.31,36.41,428.34Z"/><path class="cls-13" d="M35.38,427.75l.73.42a.27.27,0,0,0,.23,0l.7-.4c.06,0,.07-.1,0-.14l-.73-.42a.27.27,0,0,0-.23,0l-.7.4C35.32,427.65,35.32,427.71,35.38,427.75Z"/><path class="cls-13" d="M34.34,427.15l.73.42a.26.26,0,0,0,.24,0l.69-.4c.07,0,.08-.1,0-.13l-.73-.43a.27.27,0,0,0-.23,0l-.7.41C34.29,427.06,34.28,427.12,34.34,427.15Z"/><path class="cls-13" d="M33.31,426.55,34,427a.27.27,0,0,0,.23,0l.7-.41c.07,0,.08-.1,0-.13l-.73-.42a.26.26,0,0,0-.24,0l-.69.4C33.26,426.46,33.25,426.52,33.31,426.55Z"/><path class="cls-13" d="M32.28,426l.73.42a.27.27,0,0,0,.23,0l.7-.4c.07,0,.07-.1,0-.14l-.73-.42a.27.27,0,0,0-.23,0l-.7.4C32.22,425.86,32.22,425.92,32.28,426Z"/><path class="cls-13" d="M31.24,425.36l.73.42a.26.26,0,0,0,.24,0l.69-.4c.07,0,.08-.1,0-.13l-.73-.43a.27.27,0,0,0-.23,0l-.7.41C31.19,425.27,31.18,425.33,31.24,425.36Z"/><path class="cls-13" d="M30.21,424.76l.73.43a.27.27,0,0,0,.23,0l.7-.41c.07,0,.08-.1,0-.13l-.73-.42a.26.26,0,0,0-.24,0l-.69.4C30.16,424.67,30.15,424.73,30.21,424.76Z"/><path class="cls-13" d="M29.18,424.17l.73.42a.27.27,0,0,0,.23,0l.7-.4c.07,0,.07-.1,0-.14l-.73-.42a.27.27,0,0,0-.23,0l-.7.4C29.12,424.07,29.12,424.13,29.18,424.17Z"/><path class="cls-13" d="M41.57,431.33l1.52.87a.27.27,0,0,0,.23,0l.69-.4c.07,0,.08-.1,0-.14l-1.51-.87a.24.24,0,0,0-.23,0l-.7.4C41.52,431.23,41.51,431.29,41.57,431.33Z"/><path class="cls-13" d="M40.05,431.6l.73.43a.27.27,0,0,0,.23,0l.7-.41c.07,0,.08-.1,0-.13l-.73-.42a.24.24,0,0,0-.23,0l-.7.4C40,431.51,40,431.57,40.05,431.6Z"/><path class="cls-13" d="M39,431l.73.42a.27.27,0,0,0,.23,0l.7-.4c.07,0,.08-.1,0-.14l-.74-.42a.27.27,0,0,0-.23,0l-.69.4C39,430.91,39,431,39,431Z"/><path class="cls-13" d="M38,430.41l.73.42a.24.24,0,0,0,.23,0l.7-.4c.06,0,.07-.1,0-.13l-.73-.43a.27.27,0,0,0-.23,0l-.7.41C37.93,430.32,37.93,430.38,38,430.41Z"/><path class="cls-13" d="M37,429.81l.73.43a.29.29,0,0,0,.24,0l.69-.41c.07,0,.08-.1,0-.13l-.73-.42a.24.24,0,0,0-.23,0l-.7.4C36.9,429.72,36.89,429.78,37,429.81Z"/><path class="cls-13" d="M35.92,429.22l.73.42a.27.27,0,0,0,.23,0l.7-.4c.07,0,.08-.1,0-.14l-.73-.42a.29.29,0,0,0-.24,0l-.69.4C35.87,429.12,35.86,429.18,35.92,429.22Z"/><path class="cls-13" d="M34.89,428.62l.73.42a.24.24,0,0,0,.23,0l.7-.4c.07,0,.07-.1,0-.13l-.73-.42a.24.24,0,0,0-.23,0l-.7.4C34.83,428.53,34.83,428.59,34.89,428.62Z"/><path class="cls-13" d="M33.85,428l.73.42a.29.29,0,0,0,.24,0l.69-.4c.07,0,.08-.1,0-.14l-.73-.42a.24.24,0,0,0-.23,0l-.7.4C33.8,427.93,33.79,428,33.85,428Z"/><path class="cls-13" d="M32.82,427.43l.73.42a.24.24,0,0,0,.23,0l.7-.4c.07,0,.08-.1,0-.14l-.73-.42a.29.29,0,0,0-.24,0l-.69.41C32.77,427.33,32.76,427.39,32.82,427.43Z"/><path class="cls-13" d="M31.79,426.83l.73.42a.26.26,0,0,0,.23,0l.7-.41c.07,0,.07-.1,0-.13l-.74-.42a.24.24,0,0,0-.23,0l-.7.4C31.74,426.74,31.73,426.8,31.79,426.83Z"/><path class="cls-13" d="M30.76,426.24l.73.42a.27.27,0,0,0,.23,0l.7-.4c.06,0,.07-.1,0-.14l-.73-.42a.27.27,0,0,0-.23,0l-.7.4C30.7,426.14,30.7,426.2,30.76,426.24Z"/><path class="cls-13" d="M29.72,425.64l.73.42a.26.26,0,0,0,.24,0l.69-.4c.07,0,.08-.1,0-.13l-.73-.43a.27.27,0,0,0-.23,0l-.7.41C29.67,425.55,29.66,425.61,29.72,425.64Z"/><path class="cls-13" d="M27.41,424.31l2,1.16a.27.27,0,0,0,.23,0l.7-.41c.07,0,.08-.1,0-.13l-2-1.16a.26.26,0,0,0-.24,0l-.69.4C27.36,424.21,27.35,424.27,27.41,424.31Z"/><path class="cls-13" d="M41.08,432.2l1,.58a.27.27,0,0,0,.23,0l.7-.41c.07,0,.08-.1,0-.13l-1-.58a.27.27,0,0,0-.23,0l-.7.41C41,432.11,41,432.17,41.08,432.2Z"/></g><g id="_Группа_6" data-name="&lt;Группа&gt;"><g id="_Группа_7" data-name="&lt;Группа&gt;"><g id="_Группа_8" data-name="&lt;Группа&gt;"><path id="_Контур_8" data-name="&lt;Контур&gt;" class="cls-10" d="M48.66,430.15h0l-16.58-9.58v-13l.13-.3.13-.06h0a1.13,1.13,0,0,1,1.15,0l15.17,8.75a1.17,1.17,0,0,1,.57,1v12.24C49.12,429.79,49,429.94,48.66,430.15Z"/><path id="_Контур_9" data-name="&lt;Контур&gt;" class="cls-10" d="M47.14,417.51,32.08,408v-.43l.13-.3.13-.06a1.13,1.13,0,0,1,1.15,0l15.17,8.75a1.06,1.06,0,0,1,.43.46Z"/><path id="_Контур_10" data-name="&lt;Контур&gt;" class="cls-14" d="M32.46,407.24l15.92,9.19a.57.57,0,0,1,.28.48v13.24l-16.58-9.58V407.46A.25.25,0,0,1,32.46,407.24Z"/><path id="_Контур_11" data-name="&lt;Контур&gt;" class="cls-11" d="M32.46,407.24l15.92,9.19a.57.57,0,0,1,.28.48v13.24l-16.58-9.58V407.46A.25.25,0,0,1,32.46,407.24Z"/><polygon id="_Контур_12" data-name="&lt;Контур&gt;" class="cls-15" points="48.66 430.15 48.66 429.67 32.08 420.1 32.08 420.57 48.66 430.15"/></g><polygon id="_Контур_13" data-name="&lt;Контур&gt;" class="cls-16" points="32.51 419.88 32.51 407.93 32.71 408.04 32.71 419.78 32.51 419.88"/><polygon id="_Контур_14" data-name="&lt;Контур&gt;" class="cls-13" points="32.71 408.04 32.71 419.78 48.13 428.65 48.13 416.94 32.71 408.04"/><polygon id="_Контур_15" data-name="&lt;Контур&gt;" class="cls-17" points="32.51 419.88 48.13 428.89 48.13 428.65 32.71 419.78 32.51 419.88"/></g></g></g></g><path id="_Контур_16" data-name="&lt;Контур&gt;" class="cls-11" d="M14.66,405.17c-.4,1,.61,2.18,3.28,3s2.91-.24,2.91-.24a53.58,53.58,0,0,1,5.2,2.68c1.6,1.12,2.31,4.37,2.53,9.85.25,6.34.27,15.74.06,17.37,0,0-3,3-6.83,2.67s-10.3-3.71-11.86-6.33c0-5.56.69-6.47-.21-9.67-2.06-7.33-3.15-10.33-2.14-15.21.82-4,2-4.51,3.57-4.47A33.36,33.36,0,0,1,14.66,405.17Z"/><path id="_Контур_17" data-name="&lt;Контур&gt;" class="cls-8" d="M34.89,427.27c-3.15.8-3.89-1.19-4.3-2.83-1-4-1.54-7.58-2.29-9.84-.88-2.66-1.8-3.09-3.1-3.61-1.51-.61-2.82.68-2.32,4.07a68.31,68.31,0,0,0,2.89,11.58,10.25,10.25,0,0,0,2.58,4.5c1.63,1.32,4.08,1.26,7.78.34a42.6,42.6,0,0,0,6.3-2.73c.8-.37,1.42-.62,3-1.34a10.44,10.44,0,0,0,4-3.08c.8-1.17.91-1.72.75-2s-.58-.26-1,.23a8.55,8.55,0,0,1-2.26,2.09s1-1,1.53-1.69a8.58,8.58,0,0,0,1.19-2c.29-.68-.3-1.6-.75-1.12s-.65,1-1.47,2a8.28,8.28,0,0,1-1.46,1.39,15.79,15.79,0,0,0,1.35-2.16,3.67,3.67,0,0,0,.49-2c0-.35-.53-.77-1-.1A12.84,12.84,0,0,1,45,421.62c-.72.75-1.33,1.18-1.35,1s.44-.62.69-1.48,0-1.79-.48-1.89-.39-.08-.77.74a22.32,22.32,0,0,0-1.43,2.6,5.4,5.4,0,0,1-1.3,2.23C39.6,425.61,37.89,426.52,34.89,427.27Z"/><path id="_Контур_18" data-name="&lt;Контур&gt;" class="cls-9" d="M24,410.45c2.1-.31,3.59.64,4.52,3.82s1.57,5.8,1.57,5.8a5.7,5.7,0,0,1-3.52,2.34c-2.51.61-3.42-.59-3.42-.59s-.7-3.34-1.13-5.61S21.44,410.83,24,410.45Z"/><path class="cls-13" d="M25.08,394.14s3.32-5.05-3.88-6.08c-5.19-.74-8.53,2.59-8.91,6.21-.37,3.46,1.76,7.05,3.29,8.48a6.27,6.27,0,0,0,4.49-.54,25.63,25.63,0,0,0,.1-2.84S17.64,394.05,25.08,394.14Z"/></g><polygon class="cls-4" points="39.49 458.05 39.49 442.88 27.44 449.91 32.08 459.5 39.49 458.05"/><polygon class="cls-2" points="31.59 443.75 36.21 441.07 39.48 442.96 34.69 445.68 31.59 443.75"/><g id="monitor"><path class="cls-1" d="M222.1,375l-56.92-32.86c-4.11-2.37-3.59-6.51,1.15-9.25l36.88-21.29L275,353.08l-36.87,21.29C233.38,377.11,226.21,377.4,222.1,375Z"/><path class="cls-18" d="M226.26,372.59l-56.93-32.87c-4.1-2.37-3.58-6.5,1.15-9.24l36.88-21.29,71.79,41.44-36.88,21.3C237.53,374.66,230.36,375,226.26,372.59Z"/><polygon class="cls-18" points="279.15 350.63 279.15 348.46 275.84 350.37 279.15 350.63"/><polygon class="cls-18" points="166.56 335.81 166.56 333.6 169.97 335.01 166.56 335.81"/><path class="cls-2" d="M226.26,370.42l-56.93-32.87c-4.1-2.37-3.58-6.51,1.15-9.24L207.36,307l71.79,41.45-36.88,21.29C237.53,372.49,230.36,372.78,226.26,370.42Z"/><polygon class="cls-19" points="207.56 307.11 198.67 277.63 271.24 319.26 279.15 348.46 207.56 307.11"/><path class="cls-19" d="M277.05,349.67l2.1-1.21L276,346Z"/><polygon class="cls-18" points="205.27 308.22 196.38 278.74 268.95 320.37 277.05 349.67 205.27 308.22"/><path class="cls-4" d="M389.49,399.35,108.58,237.17c-3.94-2.28-7.13-8.38-7.13-13.63V6.25c0-5.25,3.19-7.67,7.13-5.39L389.49,163c3.94,2.27,7.13,8.37,7.13,13.63V394C396.62,399.21,393.43,401.63,389.49,399.35Z"/><polygon class="cls-4" points="390.93 401.59 394.05 399.8 392.7 390.57 390.93 401.59"/><path class="cls-18" d="M100.94,2.19,104,.43l4.4,2.51s-4.69.71-4.8.68S100.94,2.19,100.94,2.19Z"/><path class="cls-20" d="M386.91,400.84,106,238.66c-3.94-2.28-7.14-8.38-7.14-13.63V7.74c0-5.26,3.2-7.67,7.14-5.4l280.9,162.18c3.94,2.28,7.14,8.38,7.14,13.64V395.44C394.05,400.7,390.85,403.11,386.91,400.84Z"/><path class="cls-21" d="M386.42,401.12,105.51,238.94c-3.94-2.28-7.13-8.38-7.13-13.63V8c0-5.25,3.19-7.67,7.13-5.39L386.42,164.81c3.94,2.27,7.13,8.37,7.13,13.63V395.73C393.55,401,390.36,403.4,386.42,401.12Z"/><path class="cls-22" d="M389.69,387.91,101.94,221.78l.15-212.89c0-2.18,1.53-3.06,3.42-2L386.42,169.1a7.55,7.55,0,0,1,3.42,5.92Z"/><polygon class="cls-23" points="276.62 142.08 257.55 131.07 257.55 124.19 276.62 135.2 276.62 142.08"/><polygon class="cls-24" points="320.7 167.55 280.19 144.14 280.19 137.26 320.7 160.67 320.7 167.55"/><polygon class="cls-23" points="276.62 164.09 257.55 153.09 257.55 146.21 276.62 157.21 276.62 164.09"/><polygon class="cls-25" points="293.61 174.07 280.19 166.16 280.19 159.28 293.61 167.19 293.61 174.07"/><polygon class="cls-23" points="276.62 175.1 257.55 164.09 257.55 157.21 276.62 168.22 276.62 175.1"/><polygon class="cls-25" points="302.83 190.23 280.19 177.16 280.19 170.28 302.83 183.35 302.83 190.23"/><polygon class="cls-23" points="276.62 186.1 257.55 175.1 257.55 168.22 276.62 179.23 276.62 186.1"/><polygon class="cls-26" points="339.9 222.56 280.19 188.17 280.19 181.29 339.9 215.69 339.9 222.56"/><polygon class="cls-23" points="276.62 153.09 257.55 142.08 257.55 135.2 276.62 146.21 276.62 153.09"/><polygon class="cls-23" points="354.57 198.14 280.19 155.15 280.19 148.27 354.57 191.26 354.57 198.14"/><polygon class="cls-23" points="276.62 197.11 257.55 186.1 257.55 179.22 276.62 190.23 276.62 197.11"/><polygon class="cls-27" points="344.53 237.01 280.19 199.18 280.19 192.3 344.53 230.13 344.53 237.01"/><polygon class="cls-23" points="276.62 219.13 257.55 208.12 257.55 201.24 276.62 212.25 276.62 219.13"/><polygon class="cls-23" points="355.26 264.53 280.19 221.19 280.19 214.31 355.26 257.65 355.26 264.53"/><polygon class="cls-23" points="276.62 230.13 257.55 219.13 257.55 212.25 276.62 223.25 276.62 230.13"/><polygon class="cls-27" points="302.83 245.27 280.19 232.19 280.19 225.32 302.83 238.39 302.83 245.27"/><polygon class="cls-23" points="276.62 241.14 257.55 230.13 257.55 223.25 276.62 234.26 276.62 241.14"/><polygon class="cls-25" points="326.45 270.03 280.19 243.2 280.19 236.32 326.45 263.15 326.45 270.03"/><polygon class="cls-23" points="276.62 208.12 257.55 197.11 257.55 190.23 276.62 201.24 276.62 208.12"/><polygon class="cls-25" points="288.53 215 280.19 210.18 280.19 203.3 288.53 208.12 288.53 215"/><polygon class="cls-23" points="276.62 252.15 257.55 241.14 257.55 234.26 276.62 245.27 276.62 252.15"/><polygon class="cls-27" points="310.05 271.41 280.19 254.21 280.19 247.33 310.05 264.53 310.05 271.41"/><polygon class="cls-23" points="276.62 274.16 257.55 263.15 257.55 256.27 276.62 267.28 276.62 274.16"/><polygon class="cls-26" points="323.76 301.06 280.19 276.22 280.19 269.34 323.76 294.18 323.76 301.06"/><polygon class="cls-23" points="276.62 285.17 257.55 274.16 257.55 267.28 276.62 278.29 276.62 285.17"/><polygon class="cls-23" points="285.63 290.67 280.19 287.23 280.19 280.35 285.63 283.79 285.63 290.67"/><polygon class="cls-23" points="276.62 296.17 257.55 285.17 257.55 278.29 276.62 289.29 276.62 296.17"/><polygon class="cls-24" points="305.18 312.63 280.19 298.24 280.19 291.36 305.18 305.75 305.18 312.63"/><polygon class="cls-23" points="276.62 263.15 257.55 252.15 257.55 245.26 276.62 256.27 276.62 263.15"/><polygon class="cls-25" points="314.96 285.17 280.19 265.21 280.19 258.34 314.96 278.29 314.96 285.17"/><polygon class="cls-23" points="153.28 73.29 134.21 62.28 134.21 55.4 153.28 66.41 153.28 73.29"/><polygon class="cls-27" points="237.88 122.13 156.85 75.35 156.85 68.47 237.88 115.25 237.88 122.13"/><polygon class="cls-23" points="153.28 95.3 134.21 84.29 134.21 77.41 153.28 88.42 153.28 95.3"/><polygon class="cls-24" points="210.47 128.32 156.85 97.36 156.85 90.48 210.47 121.44 210.47 128.32"/><polygon class="cls-23" points="153.28 106.31 134.21 95.3 134.21 88.42 153.28 99.43 153.28 106.31"/><polygon class="cls-26" points="223.58 146.89 156.85 108.37 156.85 101.49 223.58 140.01 223.58 146.89"/><polygon class="cls-23" points="153.28 117.31 134.21 106.31 134.21 99.43 153.28 110.43 153.28 117.31"/><polygon class="cls-23" points="203.32 146.21 156.85 119.38 156.85 112.5 203.32 139.33 203.32 146.21"/><polygon class="cls-23" points="153.28 84.29 134.21 73.28 134.21 66.41 153.28 77.41 153.28 84.29"/><polygon class="cls-25" points="197.36 109.75 156.85 86.36 156.85 79.48 197.36 102.87 197.36 109.75"/><polygon class="cls-23" points="153.28 128.32 134.21 117.31 134.21 110.43 153.28 121.44 153.28 128.32"/><polygon class="cls-27" points="180.68 144.14 156.85 130.38 156.85 123.5 180.68 137.26 180.68 144.14"/><polygon class="cls-23" points="153.28 150.33 134.21 139.32 134.21 132.45 153.28 143.45 153.28 150.33"/><polygon class="cls-24" points="231.92 195.74 156.85 152.4 156.85 145.52 231.92 188.86 231.92 195.74"/><polygon class="cls-23" points="153.28 161.34 134.21 150.33 134.21 143.45 153.28 154.46 153.28 161.34"/><polygon class="cls-26" points="179.49 176.47 156.85 163.4 156.85 156.52 179.49 169.59 179.49 176.47"/><polygon class="cls-23" points="153.28 172.35 134.21 161.34 134.21 154.46 153.28 165.47 153.28 172.35"/><polygon class="cls-23" points="223.58 212.93 156.85 174.41 156.85 167.53 223.58 206.06 223.58 212.93"/><polygon class="cls-23" points="153.28 139.33 134.21 128.32 134.21 121.44 153.28 132.45 153.28 139.33"/><polygon class="cls-25" points="220 177.85 156.85 141.39 156.85 134.51 220 170.97 220 177.85"/><polygon class="cls-23" points="153.28 183.35 134.21 172.34 134.21 165.47 153.28 176.47 153.28 183.35"/><polygon class="cls-27" points="165.19 190.23 156.85 185.42 156.85 178.54 165.19 183.35 165.19 190.23"/><polygon class="cls-23" points="153.28 205.37 134.21 194.36 134.21 187.48 153.28 198.49 153.28 205.37"/><polygon class="cls-24" points="172.34 216.37 156.85 207.43 156.85 200.55 172.34 209.49 172.34 216.37"/><polygon class="cls-23" points="153.28 216.37 134.21 205.37 134.21 198.49 153.28 209.49 153.28 216.37"/><polygon class="cls-26" points="197.36 241.83 156.85 218.44 156.85 211.56 197.36 234.95 197.36 241.83"/><polygon class="cls-23" points="153.28 227.38 134.21 216.37 134.21 209.49 153.28 220.5 153.28 227.38"/><polygon class="cls-23" points="221.19 266.59 156.85 229.44 156.85 222.56 221.19 259.71 221.19 266.59"/><polygon class="cls-23" points="153.28 194.36 134.21 183.35 134.21 176.47 153.28 187.48 153.28 194.36"/><polygon class="cls-25" points="237.88 243.2 156.85 196.42 156.85 189.54 237.88 236.32 237.88 243.2"/></g><ellipse class="cls-1" cx="299.75" cy="475.84" rx="41.84" ry="24.16"/><path class="cls-28" d="M345.7,472.41V408l-83.51,2.1.18,59.4c-1.56,7.15,2.4,14.62,11.91,20.11,16.34,9.43,42.83,9.44,59.17,0C341.66,484.84,345.74,478.62,345.7,472.41Z"/><ellipse class="cls-29" cx="303.86" cy="407.97" rx="41.84" ry="24.16"/><path class="cls-30" d="M339.09,408c0,3.93-3.27,8.06-8.95,11.35-6.2,3.56-14.67,5.76-23.59,6.12-.89,0-1.78.06-2.68.06-9.9,0-19.47-2.26-26.28-6.18-5.68-3.29-8.95-7.42-8.95-11.35s3.27-8.06,8.95-11.35c6.81-3.93,16.38-6.19,26.27-6.19.9,0,1.8,0,2.69.06,8.92.36,17.39,2.56,23.59,6.13C335.82,399.91,339.09,404,339.09,408Z"/><path class="cls-31" d="M339.09,408c0,3.93-3.27,8.06-8.95,11.35-6.2,3.56-14.67,5.76-23.59,6.12-8.92-.36-17.4-2.56-23.59-6.12C277.27,416,274,411.9,274,408s3.26-8.06,8.94-11.35c6.2-3.57,14.68-5.77,23.6-6.13,8.92.36,17.39,2.56,23.59,6.13C335.82,399.91,339.09,404,339.09,408Z"/><path class="cls-32" d="M339.58,437.81l-8.88-5.14-4.32,2.5,4.32,2.5v1.64l8.33,4.8-.25,1.54c1.21,1,5.52,9,5.52,9l.3-.28V475.1c0,5.44-3.19,3.6-4.55,2.81l-9.35-5.4L326.38,475l4.32,2.49v1.64l9.35,5.4a14.4,14.4,0,0,0,3,1.36l-.56,2.6,4.84-2.73.07,0,.07,0h0c2-1.18,2.85-4.05,2.85-7.27V456.74C350.36,447.55,343.31,440.34,339.58,437.81Z"/><path class="cls-33" d="M335.73,487.06l-9.35-5.4V475l9.35,5.4c1.36.78,4.55,2.63,4.55-2.82V455.93c0-5.12-4.63-8.66-5.42-9.22l-8.48-4.9v-6.64l8.88,5.14C339,442.84,346,450.06,346,459.25v21.67C346,486.77,343.33,491.44,335.73,487.06Z"/><ellipse class="cls-1" cx="41.37" cy="355.37" rx="28.81" ry="16.64"/><ellipse class="cls-2" cx="45.48" cy="352.29" rx="28.81" ry="16.64"/><polygon class="cls-2" points="6.91 295.41 16.99 353.44 74.22 353.44 84.05 295.83 6.91 295.41"/><ellipse class="cls-34" cx="45.48" cy="294.69" rx="38.61" ry="22.29"/><path class="cls-30" d="M45.48,312.06c-9.46,0-18.28-2.08-24.84-5.87-5.63-3.24-8.85-7.44-8.85-11.5s3.22-8.26,8.85-11.5c6.55-3.79,15.38-5.87,24.84-5.87s18.29,2.08,24.84,5.87c5.63,3.24,8.85,7.44,8.85,11.5S76,303,70.32,306.19C63.77,310,55,312.06,45.48,312.06Z"/><path class="cls-33" d="M62.09,277.13A48.79,48.79,0,0,0,45.71,237v0l0,0-.11-.11v.21a48.78,48.78,0,0,0-16.39,40.15L7.12,275.12c9.32,35.11,38.59,32.09,38.59,32.09v-.07c2.21.17,29.51,1.58,38.44-32.1Z"/><path class="cls-28" d="M45.71,307.21s-2-27.34-38.68-45.75C7,261.46-1.66,306.88,45.71,307.21Z"/><path class="cls-28" d="M45.48,307.21s2-27.34,38.68-45.75C84.16,261.46,92.85,306.88,45.48,307.21Z"/></g></g></svg>