<?xml version="1.0" encoding="utf-8"?>
<svg viewBox="8.087 103.18 129.787 159.229" xmlns="http://www.w3.org/2000/svg">
  <defs>
    <style>.cls-1,.cls-11,.cls-9{fill:#d6d8e5;}.cls-1{opacity:0.15;}.cls-2,.cls-3{fill:#edeff9;}.cls-2{opacity:0.5;}.cls-4{fill:#ffbc00;}.cls-5{fill:#8c50ff;}.cls-6{fill:#424956;}.cls-7{fill:#494949;}.cls-8{fill:#2b303f;}.cls-9{opacity:0.4;}.cls-10{fill:#b1b4c4;}.cls-12{fill:#9ea1af;}.cls-13{fill:#c4c7d6;}.cls-14{fill:#e4e7f2;}.cls-15{fill:#fff;}.cls-16{fill:#e9eaf2;}.cls-17{fill:#f5f6ff;}.cls-18,.cls-19{fill:none;stroke:#e9eaf2;stroke-miterlimit:10;}.cls-18{stroke-width:0.31px;}.cls-19{stroke-width:1.53px;}.cls-20{fill:#edf0f9;}.cls-21{fill:#e2e5f2;}.cls-22{fill:#6e48e5;}.cls-23{fill:#5e42d3;}.cls-24{fill:#ffcea9;}.cls-25{fill:#ededed;}.cls-26{fill:#38226d;}.cls-27{fill:#9c73ff;}.cls-28{fill:#f4f4f4;}.cls-29{fill:#3a2c6d;}.cls-30{isolation:isolate;}</style>
  </defs>
  <title>Startup_SVG</title>
  <g id="Слой_2" data-name="Слой 2" transform="matrix(1, 0, 0, 1, -0.836587, 19.241507)">
    <g id="Слой_1-2" data-name="Слой 1">
      <path class="cls-4" d="M 59.05 214.598 C 59.05 214.598 59.65 222.701 72.3 237.235 C 72.3 237.235 84.08 225.532 85.3 214.352 C 86.52 203.172 59.05 214.598 59.05 214.598 Z" style=""/>
      <polygon class="cls-5" points="43.6 153.81 14.33 182.29 10.85 219.48 46.25 201.73 52.69 156.37 43.6 153.81"/>
      <polygon class="cls-5" points="101 153.81 130.26 182.29 133.75 219.48 98.22 200.5 91.91 156.37 101 153.81"/>
      <ellipse class="cls-6" cx="71.93" cy="216.84" rx="14.55" ry="8.4"/>
      <polygon class="cls-7" points="49.87 208.44 49.87 200.88 93.94 200.88 93.94 208.72 49.87 208.44"/>
      <ellipse class="cls-8" cx="71.93" cy="208.43" rx="22.06" ry="12.74"/>
      <ellipse class="cls-3" cx="71.86" cy="196.96" rx="26.92" ry="15.54"/>
      <path class="cls-3" d="M 100.93 178.842 L 100.93 178.842 C 100.93 179.757 100.93 180.657 100.93 181.528 C 100.93 182.26 100.93 182.992 100.93 183.724 C 100.93 184.713 100.86 185.657 100.81 186.58 C 100.81 187.729 100.7 188.819 100.62 189.867 C 100.54 190.913 100.47 191.938 100.37 192.882 C 99.96 197.019 99.97 200.064 99.27 201.257 C 95.46 207.779 82.57 204.185 76.21 201.842 C 73.86 200.979 72.31 200.268 72.31 200.268 L 71.73 200.268 C 71.73 200.268 69.89 201.001 67.17 201.792 C 60.5 203.767 48.61 207.274 45.31 201.235 C 44.72 200.152 44.13 196.572 43.77 192.823 C 43.68 191.887 43.6 190.884 43.52 189.815 C 43.44 188.747 43.4 187.685 43.34 186.536 C 43.34 185.621 43.27 184.676 43.24 183.695 C 43.24 182.963 43.24 182.231 43.24 181.499 L 43.24 181.499 L 43.24 178.813 L 43.24 178.813 C 43.06 153.272 46.76 112.431 58.98 95.001 C 62.51 89.957 66.75 86.876 71.82 86.692 L 71.82 86.692 L 72.4 86.692 L 72.4 86.692 C 77.4 86.882 81.69 89.95 85.23 94.972 C 97.28 112.336 101.15 153.016 100.93 178.842 Z" style=""/>
      <circle class="cls-8" cx="72" cy="124.21" r="10.17"/>
      <path class="cls-6" d="M 72 135.87 C 63.024 135.87 57.414 126.153 61.902 118.38 C 66.39 110.607 77.61 110.607 82.098 118.38 C 83.121 120.153 83.66 122.163 83.66 124.21 C 83.654 130.647 78.437 135.864 72 135.87 Z M 72 115.53 C 65.318 115.522 61.134 122.751 64.468 128.541 C 67.802 134.332 76.154 134.341 79.502 128.559 C 80.267 127.237 80.67 125.737 80.67 124.21 C 80.665 119.422 76.788 115.541 72 115.53 Z"/>
      <path class="cls-5" d="M100.93,189.39c0,1.25,0,2.48,0,3.68-1,3.3-3.72,6.46-8.14,9-11.46,6.61-30,6.61-41.51,0-4.42-2.56-7.13-5.73-8.14-9h0l0-3.67c1,3.36,3.7,6.56,8.18,9.15,11.47,6.61,30.05,6.61,41.51,0C97.22,195.93,100,192.74,100.93,189.39Z"/>
      <path class="cls-5" d="M100.84,195.21c0,1.34-.07,2.64-.12,3.89-1.12,3.12-3.78,6.09-8,8.51-11.46,6.62-30,6.62-41.51,0-4.21-2.44-6.87-5.43-8-8.57,0-1.25-.07-2.54-.1-3.87,1,3.26,3.73,6.36,8.09,8.88,11.47,6.62,30.05,6.62,41.51,0C97.09,201.54,99.79,198.45,100.84,195.21Z"/>
      <path class="cls-5" d="M100.53,184.88c-1.21,2.93-3.81,5.72-7.78,8-11.46,6.61-30,6.61-41.51,0-4-2.32-6.6-5.12-7.81-8.08.08,1.46.16,2.83.25,4.11,1.29,2.76,3.81,5.36,7.56,7.53a39.77,39.77,0,0,0,15.84,4.72,50.54,50.54,0,0,0,9,.07,40.14,40.14,0,0,0,16.63-4.79c3.72-2.15,6.23-4.72,7.53-7.45Z"/>
      <path class="cls-5" d="M 84.657 93.776 C 76.376 95.853 67.524 95.853 59.243 93.776 C 62.66 88.325 66.765 84.993 71.674 84.795 L 71.674 84.795 L 72.235 84.795 L 72.235 84.795 C 77.124 85.032 81.23 88.348 84.657 93.776 Z" style=""/>
      <rect class="cls-5" x="69.8" y="153.89" width="4.99" height="65.51"/>
      <g id="monitor"/>
    </g>
  </g>
</svg>